# name lilypad
# Flat on the XZ plane, centered at the origin. A notch breaks the rim.
# The flower sits above the pad. Instances are translated and scaled onto the river.
v 0.9063 0.0000 0.4226
v 0.3420 0.0000 0.9397
v -0.4226 0.0000 0.9063
v -0.9397 0.0000 0.3420
v -0.9063 0.0000 -0.4226
v -0.3420 0.0000 -0.9397
v 0.4226 0.0000 -0.9063
v 0.9397 0.0000 -0.3420
v 0.5619 0.0000 0.2620
v 0.2121 0.0000 0.5826
v -0.2620 0.0000 0.5619
v -0.5826 0.0000 0.2121
v -0.5619 0.0000 -0.2620
v -0.2121 0.0000 -0.5826
v 0.2620 0.0000 -0.5619
v 0.5826 0.0000 -0.2121
v 0.0000 0.0000 0.0000
v 0.3600 0.1600 0.0000
v 0.1800 0.1600 0.3118
v -0.1800 0.1600 0.3118
v -0.3600 0.1600 0.0000
v -0.1800 0.1600 -0.3118
v 0.1800 0.1600 -0.3118
v 0.0000 0.3400 0.0000
# color #2E9B57
l 1 2
l 2 3
l 3 4
l 4 5
l 5 6
l 6 7
l 7 8
l 9 10
l 10 11
l 11 12
l 12 13
l 13 14
l 14 15
l 15 16
l 16 9
l 9 1
l 10 2
l 11 3
l 12 4
l 13 5
l 14 6
l 15 7
l 16 8
l 17 9
l 17 10
l 17 11
l 17 12
l 17 13
l 17 14
l 17 15
l 17 16
l 17 1
l 17 8
# color #F2D35E
l 18 19
l 19 20
l 20 21
l 21 22
l 22 23
l 23 18
# color #E15A4A
l 24 18
l 24 19
l 24 20
l 24 21
l 24 22
l 24 23
l 17 24
# Triangles for view 3. The notch between vertices 8 and 1 stays open.
# color #2E9B57
f 17 9 10
f 17 10 11
f 17 11 12
f 17 12 13
f 17 13 14
f 17 14 15
f 17 15 16
# color #267F48
f 1 2 10
f 1 10 9
f 2 3 11
f 2 11 10
f 3 4 12
f 3 12 11
f 4 5 13
f 4 13 12
f 5 6 14
f 5 14 13
f 6 7 15
f 6 15 14
f 7 8 16
f 7 16 15
# color #F2D35E
f 18 19 20
f 18 20 21
f 18 21 22
f 18 22 23
f 24 19 20
f 24 21 22
f 24 23 18
# color #E15A4A
f 24 18 19
f 24 20 21
f 24 22 23
