# name log
# A log lying along Z, centered at the origin. Ride it down the river.
# Octagonal prism with two end caps. Uniform scale is applied per instance.
# color #8B5A2B
v 0.4500 0.0000 -1.6000
v 0.3182 0.3182 -1.6000
v 0.0000 0.4500 -1.6000
v -0.3182 0.3182 -1.6000
v -0.4500 0.0000 -1.6000
v -0.3182 -0.3182 -1.6000
v -0.0000 -0.4500 -1.6000
v 0.3182 -0.3182 -1.6000
v 0.4500 0.0000 -0.5300
v 0.3182 0.3182 -0.5300
v 0.0000 0.4500 -0.5300
v -0.3182 0.3182 -0.5300
v -0.4500 0.0000 -0.5300
v -0.3182 -0.3182 -0.5300
v -0.0000 -0.4500 -0.5300
v 0.3182 -0.3182 -0.5300
v 0.4500 0.0000 0.5300
v 0.3182 0.3182 0.5300
v 0.0000 0.4500 0.5300
v -0.3182 0.3182 0.5300
v -0.4500 0.0000 0.5300
v -0.3182 -0.3182 0.5300
v -0.0000 -0.4500 0.5300
v 0.3182 -0.3182 0.5300
v 0.4500 0.0000 1.6000
v 0.3182 0.3182 1.6000
v 0.0000 0.4500 1.6000
v -0.3182 0.3182 1.6000
v -0.4500 0.0000 1.6000
v -0.3182 -0.3182 1.6000
v -0.0000 -0.4500 1.6000
v 0.3182 -0.3182 1.6000
v 0.0000 0.0000 -1.6000
v 0.0000 0.0000 1.6000
l 1 2
l 2 3
l 3 4
l 4 5
l 5 6
l 6 7
l 7 8
l 8 1
l 9 10
l 10 11
l 11 12
l 12 13
l 13 14
l 14 15
l 15 16
l 16 9
l 17 18
l 18 19
l 19 20
l 20 21
l 21 22
l 22 23
l 23 24
l 24 17
l 25 26
l 26 27
l 27 28
l 28 29
l 29 30
l 30 31
l 31 32
l 32 25
l 1 9
l 2 10
l 3 11
l 4 12
l 5 13
l 6 14
l 7 15
l 8 16
l 9 17
l 10 18
l 11 19
l 12 20
l 13 21
l 14 22
l 15 23
l 16 24
l 17 25
l 18 26
l 19 27
l 20 28
l 21 29
l 22 30
l 23 31
l 24 32
# color #E7C8A0
l 33 1
l 34 25
l 33 2
l 34 26
l 33 3
l 34 27
l 33 4
l 34 28
l 33 5
l 34 29
l 33 6
l 34 30
l 33 7
l 34 31
l 33 8
l 34 32
# Triangles for view 3. Each bark panel is two triangles.
# Panels alternate between two browns so the sides of the log show up.
# color #8B5A2B
f 1 2 10
f 1 10 9
f 3 4 12
f 3 12 11
f 5 6 14
f 5 14 13
f 7 8 16
f 7 16 15
f 9 10 18
f 9 18 17
f 11 12 20
f 11 20 19
f 13 14 22
f 13 22 21
f 15 16 24
f 15 24 23
f 17 18 26
f 17 26 25
f 19 20 28
f 19 28 27
f 21 22 30
f 21 30 29
f 23 24 32
f 23 32 31
# color #6B4220
f 2 3 11
f 2 11 10
f 4 5 13
f 4 13 12
f 6 7 15
f 6 15 14
f 8 1 9
f 8 9 16
f 10 11 19
f 10 19 18
f 12 13 21
f 12 21 20
f 14 15 23
f 14 23 22
f 16 9 17
f 16 17 24
f 18 19 27
f 18 27 26
f 20 21 29
f 20 29 28
f 22 23 31
f 22 31 30
f 24 17 25
f 24 25 32
# color #E7C8A0
f 33 1 2
f 33 2 3
f 33 3 4
f 33 4 5
f 33 5 6
f 33 6 7
f 33 7 8
f 33 8 1
f 34 25 26
f 34 26 27
f 34 27 28
f 34 28 29
f 34 29 30
f 34 30 31
f 34 31 32
f 34 32 25
