# name wall
# A muddy riverbank segment centered at the origin, with a rock at the waterline and grass on top.
# Length runs along Z, height along Y, thickness along X.
# Tile these along both banks by translating in Z. No rotation, so rocks and grass sit on both sides.
# Mud bank
v -0.2200 -1.0000 -1.0000
v  0.2200 -1.0000 -1.0000
v  0.2200  0.6200 -1.0000
v -0.2200  0.6200 -1.0000
v -0.2200 -1.0000  1.0000
v  0.2200 -1.0000  1.0000
v  0.2200  0.6200  1.0000
v -0.2200  0.6200  1.0000
# Grass top, wider than the mud so it hangs out over the edge
v -0.7500  0.6200 -1.0000
v  0.7500  0.6200 -1.0000
v  0.7500  1.0000 -1.0000
v -0.7500  1.0000 -1.0000
v -0.7500  0.6200  1.0000
v  0.7500  0.6200  1.0000
v  0.7500  1.0000  1.0000
v -0.7500  1.0000  1.0000
# Rocks, each a square base on the water with a point on top
v  0.1400 -0.9500 -0.7000
v  0.5400 -0.9500 -0.7000
v  0.5400 -0.9500 -0.3000
v  0.1400 -0.9500 -0.3000
v  0.3400 -0.6500 -0.5000
v -0.5100 -0.9500  0.3200
v -0.1500 -0.9500  0.3200
v -0.1500 -0.9500  0.6800
v -0.5100 -0.9500  0.6800
v -0.3300 -0.6900  0.5000
# Where the wet mud ends
v -0.2200 -0.3000 -1.0000
v -0.2200 -0.3000  1.0000
v  0.2200 -0.3000 -1.0000
v  0.2200 -0.3000  1.0000
# color #9C7A50
l 1 2
l 2 3
l 3 4
l 4 1
l 5 6
l 6 7
l 7 8
l 8 5
l 1 5
l 2 6
l 3 7
l 4 8
l 27 28
l 29 30
# color #5FAF45
l 9 10
l 10 11
l 11 12
l 12 9
l 13 14
l 14 15
l 15 16
l 16 13
l 9 13
l 10 14
l 11 15
l 12 16
# color #A0A4A8
l 17 18
l 18 19
l 19 20
l 20 17
l 21 17
l 21 18
l 21 19
l 21 20
l 22 23
l 23 24
l 24 25
l 25 22
l 26 22
l 26 23
l 26 24
l 26 25
# Triangles for view 3.
# color #6B4A2E
f 27 28 8
f 27 8 4
f 29 30 7
f 29 7 3
f 1 2 3
f 1 3 4
f 5 6 7
f 5 7 8
# color #4A3322
f 1 5 28
f 1 28 27
f 2 6 30
f 2 30 29
# color #4C8A3A
f 9 10 11
f 9 11 12
f 13 14 15
f 13 15 16
f 9 13 16
f 9 16 12
f 10 14 15
f 10 15 11
f 12 11 15
f 12 15 16
f 9 10 14
f 9 14 13
# color #8A8D91
f 21 17 18
f 21 19 20
f 26 22 23
f 26 24 25
# color #6F7377
f 21 18 19
f 21 20 17
f 26 23 24
f 26 25 22
