# name water
# A strip of river surface centered at the origin, lying flat on the XZ plane.
# Tile these down the river by translating in Z. No rotation.
v -6.9 0 -1
v 6.9 0 -1
v 6.9 0 0
v -6.9 0 0
v 6.9 0 1
v -6.9 0 1
v -6.88 0 0.12
v -5 0 -0.12
v -4 0 0.12
v -3 0 -0.12
v -2 0 0.12
v -1 0 -0.12
v 0 0 0.12
v 1 0 -0.12
v 2 0 0.12
v 3 0 -0.12
v 4 0 0.12
v 5 0 -0.12
v 6.88 0 0.12
# color #3A6EA5
l 7 8
l 8 9
l 9 10
l 10 11
l 11 12
l 12 13
l 13 14
l 14 15
l 15 16
l 16 17
l 17 18
l 18 19
# Triangles for view 3. Two shades make stripes across the river.
# color #16406B
f 1 2 3
f 1 3 4
# color #1C4F82
f 4 3 5
f 4 5 6
